HIERARCHY
ROOT newVegas:Hips
{
	OFFSET 0.000000 96.479958 0.000000
	CHANNELS 6 Xposition Yposition Zposition Xrotation Yrotation Zrotation
	JOINT newVegas:Pelvis
	{
		OFFSET 0.000000 0.000000 0.000000
		CHANNELS 3 Xrotation Yrotation Zrotation
		JOINT newVegas:LeftUpLeg
		{
			OFFSET 18.735201 -5.666702 -4.541200
			CHANNELS 3 Xrotation Yrotation Zrotation
			JOINT newVegas:LeftLeg
			{
				OFFSET -0.021200 -31.938179 0.493100
				CHANNELS 3 Xrotation Yrotation Zrotation
				JOINT newVegas:LeftFoot
				{
					OFFSET 0.021200 -31.938179 -4.336299
					CHANNELS 3 Xrotation Yrotation Zrotation
					JOINT newVegas:LeftToeBase
					{
						OFFSET 0.943001 -26.722000 15.023500
						CHANNELS 3 Xrotation Yrotation Zrotation
						End Site
						{
							OFFSET 0.000000 30.670183 0.000000
						}
					}
				}
				JOINT newVegas:Left_PantLeg
				{
					OFFSET 0.663870 -9.044666 -1.108900
					CHANNELS 3 Xrotation Yrotation Zrotation
					End Site
					{
						OFFSET 1.415995 20.635357 0.000000
					}
				}
			}
		}
		JOINT newVegas:RightUpLeg
		{
			OFFSET -18.735201 -5.666702 -4.541200
			CHANNELS 3 Xrotation Yrotation Zrotation
			JOINT newVegas:RightLeg
			{
				OFFSET 0.018946 -31.938133 0.493100
				CHANNELS 3 Xrotation Yrotation Zrotation
				JOINT newVegas:RightFoot
				{
					OFFSET -0.018946 -31.938126 -4.336299
					CHANNELS 3 Xrotation Yrotation Zrotation
					JOINT newVegas:RightToeBase
					{
						OFFSET -0.943001 -26.722004 15.023500
						CHANNELS 3 Xrotation Yrotation Zrotation
						End Site
						{
							OFFSET 0.000000 30.670187 0.000000
						}
					}
				}
				JOINT newVegas:Right_PantLeg
				{
					OFFSET -0.661674 -9.044716 -1.108900
					CHANNELS 3 Xrotation Yrotation Zrotation
					End Site
					{
						OFFSET -1.415958 20.635269 0.000000
					}
				}
			}
		}
	}
	JOINT newVegas:Spine
	{
		OFFSET 0.000000 10.199997 -0.299500
		CHANNELS 3 Xrotation Yrotation Zrotation
		JOINT newVegas:Spine1
		{
			OFFSET 0.000000 11.900002 -1.516600
			CHANNELS 3 Xrotation Yrotation Zrotation
			JOINT newVegas:Spine2
			{
				OFFSET 0.000000 13.600006 -2.842500
				CHANNELS 3 Xrotation Yrotation Zrotation
				JOINT newVegas:Neck
				{
					OFFSET 0.000000 9.624100 -2.890100
					CHANNELS 3 Xrotation Yrotation Zrotation
					JOINT newVegas:Head
					{
						OFFSET 0.000000 14.068802 -1.351900
						CHANNELS 3 Xrotation Yrotation Zrotation
						JOINT newVegas:Hair_Back
						{
							OFFSET 0.000000 3.231903 -17.524799
							CHANNELS 3 Xrotation Yrotation Zrotation
							End Site
							{
								OFFSET 0.000000 19.849884 0.000000
							}
						}
						JOINT newVegas:Hair_Front
						{
							OFFSET 0.000000 31.260406 4.573800
							CHANNELS 3 Xrotation Yrotation Zrotation
							JOINT newVegas:Hair_Front1
							{
								OFFSET 0.000000 2.284103 11.993300
								CHANNELS 3 Xrotation Yrotation Zrotation
								JOINT newVegas:Hair_Front2
								{
									OFFSET 0.000000 2.284103 11.993300
									CHANNELS 3 Xrotation Yrotation Zrotation
									End Site
									{
										OFFSET 0.000000 12.208862 0.000000
									}
								}
							}
						}
						JOINT newVegas:Jowel
						{
							OFFSET 0.000000 -7.458206 6.864100
							CHANNELS 3 Xrotation Yrotation Zrotation
							End Site
							{
								OFFSET 0.000000 19.849884 0.000000
							}
						}
					}
				}
				JOINT newVegas:LeftShoulder
				{
					OFFSET 15.263000 10.923401 -0.547700
					CHANNELS 3 Xrotation Yrotation Zrotation
					JOINT newVegas:LeftArm
					{
						OFFSET 25.438599 -2.830597 -13.032500
						CHANNELS 3 Xrotation Yrotation Zrotation
						JOINT newVegas:LeftForeArm
						{
							OFFSET 29.960503 0.000000 0.000000
							CHANNELS 3 Xrotation Yrotation Zrotation
							JOINT newVegas:LeftHand
							{
								OFFSET 27.849251 0.000000 0.000000
								CHANNELS 3 Xrotation Yrotation Zrotation
								JOINT newVegas:LeftHandThumb1
								{
									OFFSET 4.487587 -3.305161 6.305391
									CHANNELS 3 Xrotation Yrotation Zrotation
									JOINT newVegas:LeftHandThumb2
									{
										OFFSET 5.480453 -3.164139 3.164143
										CHANNELS 3 Xrotation Yrotation Zrotation
										JOINT newVegas:LeftHandThumb3
										{
											OFFSET 5.159721 -2.978973 2.978967
											CHANNELS 3 Xrotation Yrotation Zrotation
											End Site
											{
												OFFSET 2.494507 5.926697 1.738678
											}
										}
									}
								}
								JOINT newVegas:LeftHandIndex1
								{
									OFFSET 18.578728 -0.527832 5.208049
									CHANNELS 3 Xrotation Yrotation Zrotation
									JOINT newVegas:LeftHandIndex2
									{
										OFFSET 3.192009 0.000000 0.000000
										CHANNELS 3 Xrotation Yrotation Zrotation
										JOINT newVegas:LeftHandIndex3
										{
											OFFSET 3.835129 0.000000 0.000000
											CHANNELS 3 Xrotation Yrotation Zrotation
											End Site
											{
												OFFSET -0.034599 3.816971 0.371180
											}
										}
									}
								}
								JOINT newVegas:LeftHandMiddle1
								{
									OFFSET 18.476105 0.000000 0.000000
									CHANNELS 3 Xrotation Yrotation Zrotation
									JOINT newVegas:LeftHandMiddle2
									{
										OFFSET 3.324875 0.000000 0.000000
										CHANNELS 3 Xrotation Yrotation Zrotation
										JOINT newVegas:LeftHandMiddle3
										{
											OFFSET 4.596550 0.000000 0.000000
											CHANNELS 3 Xrotation Yrotation Zrotation
											End Site
											{
												OFFSET 0.057701 4.578827 0.399218
											}
										}
									}
								}
								JOINT newVegas:LeftHandRing1
								{
									OFFSET 17.732719 0.121887 -4.201567
									CHANNELS 3 Xrotation Yrotation Zrotation
									JOINT newVegas:LeftHandRing2
									{
										OFFSET 2.733170 0.000000 0.000000
										CHANNELS 3 Xrotation Yrotation Zrotation
										JOINT newVegas:LeftHandRing3
										{
											OFFSET 3.178268 0.000000 0.000000
											CHANNELS 3 Xrotation Yrotation Zrotation
											End Site
											{
												OFFSET 0.119102 3.170624 0.185394
											}
										}
									}
								}
								JOINT newVegas:LeftHandPinky1
								{
									OFFSET 15.989624 -0.606689 -7.535461
									CHANNELS 3 Xrotation Yrotation Zrotation
									JOINT newVegas:LeftHandPinky2
									{
										OFFSET 2.538986 0.000000 0.000000
										CHANNELS 3 Xrotation Yrotation Zrotation
										JOINT newVegas:LeftHandPinky3
										{
											OFFSET 2.593102 0.000000 0.000000
											CHANNELS 3 Xrotation Yrotation Zrotation
											End Site
											{
												OFFSET -0.150902 2.584198 0.152708
											}
										}
									}
								}
							}
							JOINT newVegas:Left_Sleeve
							{
								OFFSET 0.267448 -0.649796 0.577675
								CHANNELS 3 Xrotation Yrotation Zrotation
								End Site
								{
									OFFSET 0.000000 15.991241 0.000000
								}
							}
							JOINT newVegas:Left_CapeC
							{
								OFFSET 15.715958 -8.608795 -6.935905
								CHANNELS 3 Xrotation Yrotation Zrotation
								JOINT newVegas:Left_CapeC1
								{
									OFFSET 0.000000 -8.688499 0.000000
									CHANNELS 3 Xrotation Yrotation Zrotation
									End Site
									{
										OFFSET 0.000000 8.688499 0.000000
									}
								}
							}
						}
						JOINT newVegas:Left_CapeB
						{
							OFFSET 26.118385 -8.608795 -7.079235
							CHANNELS 3 Xrotation Yrotation Zrotation
							JOINT newVegas:Left_CapeB1
							{
								OFFSET 0.000000 -8.688499 0.000000
								CHANNELS 3 Xrotation Yrotation Zrotation
								End Site
								{
									OFFSET 0.000000 8.688499 0.000000
								}
							}
						}
						JOINT newVegas:Left_CapeA
						{
							OFFSET 5.115639 -8.608795 -10.395809
							CHANNELS 3 Xrotation Yrotation Zrotation
							JOINT newVegas:Left_CapeA1
							{
								OFFSET 0.000000 -8.688499 0.000000
								CHANNELS 3 Xrotation Yrotation Zrotation
								End Site
								{
									OFFSET 0.000000 8.688499 0.000000
								}
							}
						}
					}
				}
				JOINT newVegas:RightShoulder
				{
					OFFSET -15.263000 10.923401 -0.547700
					CHANNELS 3 Xrotation Yrotation Zrotation
					JOINT newVegas:RightArm
					{
						OFFSET -25.438599 -2.830597 -13.032500
						CHANNELS 3 Xrotation Yrotation Zrotation
						JOINT newVegas:RightForeArm
						{
							OFFSET -29.960503 0.000000 0.000000
							CHANNELS 3 Xrotation Yrotation Zrotation
							JOINT newVegas:RightHand
							{
								OFFSET -27.849251 0.000000 0.000000
								CHANNELS 3 Xrotation Yrotation Zrotation
								JOINT newVegas:RightHandThumb1
								{
									OFFSET -4.487587 -3.305161 6.305391
									CHANNELS 3 Xrotation Yrotation Zrotation
									JOINT newVegas:RightHandThumb2
									{
										OFFSET -5.480453 -3.164139 3.164143
										CHANNELS 3 Xrotation Yrotation Zrotation
										JOINT newVegas:RightHandThumb3
										{
											OFFSET -5.159721 -2.978973 2.978967
											CHANNELS 3 Xrotation Yrotation Zrotation
											End Site
											{
												OFFSET -2.494507 5.926697 1.738678
											}
										}
									}
								}
								JOINT newVegas:RightHandIndex1
								{
									OFFSET -18.578728 -0.527832 5.208049
									CHANNELS 3 Xrotation Yrotation Zrotation
									JOINT newVegas:RightHandIndex2
									{
										OFFSET -3.192009 0.000000 0.000000
										CHANNELS 3 Xrotation Yrotation Zrotation
										JOINT newVegas:RightHandIndex3
										{
											OFFSET -3.835129 0.000000 0.000000
											CHANNELS 3 Xrotation Yrotation Zrotation
											End Site
											{
												OFFSET 0.034599 3.816971 0.371180
											}
										}
									}
								}
								JOINT newVegas:RightHandMiddle1
								{
									OFFSET -18.476105 0.000000 0.000000
									CHANNELS 3 Xrotation Yrotation Zrotation
									JOINT newVegas:RightHandMiddle2
									{
										OFFSET -3.324875 0.000000 0.000000
										CHANNELS 3 Xrotation Yrotation Zrotation
										JOINT newVegas:RightHandMiddle3
										{
											OFFSET -4.596550 0.000000 0.000000
											CHANNELS 3 Xrotation Yrotation Zrotation
											End Site
											{
												OFFSET -0.057701 4.578827 0.399218
											}
										}
									}
								}
								JOINT newVegas:RightHandRing1
								{
									OFFSET -17.732719 0.121887 -4.201567
									CHANNELS 3 Xrotation Yrotation Zrotation
									JOINT newVegas:RightHandRing2
									{
										OFFSET -2.733170 0.000000 0.000000
										CHANNELS 3 Xrotation Yrotation Zrotation
										JOINT newVegas:RightHandRing3
										{
											OFFSET -3.178268 0.000000 0.000000
											CHANNELS 3 Xrotation Yrotation Zrotation
											End Site
											{
												OFFSET -0.119102 3.170624 0.185394
											}
										}
									}
								}
								JOINT newVegas:RightHandPinky1
								{
									OFFSET -15.989624 -0.606689 -7.535461
									CHANNELS 3 Xrotation Yrotation Zrotation
									JOINT newVegas:RightHandPinky2
									{
										OFFSET -2.538986 0.000000 0.000000
										CHANNELS 3 Xrotation Yrotation Zrotation
										JOINT newVegas:RightHandPinky3
										{
											OFFSET -2.593102 0.000000 0.000000
											CHANNELS 3 Xrotation Yrotation Zrotation
											End Site
											{
												OFFSET 0.150902 2.584198 0.152708
											}
										}
									}
								}
							}
							JOINT newVegas:Right_CapeC
							{
								OFFSET -15.715958 -8.608795 -6.935905
								CHANNELS 3 Xrotation Yrotation Zrotation
								JOINT newVegas:Right_CapeC1
								{
									OFFSET 0.000000 -8.688499 0.000000
									CHANNELS 3 Xrotation Yrotation Zrotation
									End Site
									{
										OFFSET 0.000000 8.688499 0.000000
									}
								}
							}
							JOINT newVegas:Right_Sleeve
							{
								OFFSET -0.267448 -0.649994 0.577675
								CHANNELS 3 Xrotation Yrotation Zrotation
								End Site
								{
									OFFSET 0.000000 15.991302 0.000000
								}
							}
						}
						JOINT newVegas:Right_CapeA
						{
							OFFSET -5.115540 -8.608795 -10.395824
							CHANNELS 3 Xrotation Yrotation Zrotation
							JOINT newVegas:Right_CapeA1
							{
								OFFSET 0.000000 -8.688499 0.000000
								CHANNELS 3 Xrotation Yrotation Zrotation
								End Site
								{
									OFFSET 0.000000 8.688499 0.000000
								}
							}
						}
						JOINT newVegas:Right_CapeB
						{
							OFFSET -26.118187 -8.608795 -7.079266
							CHANNELS 3 Xrotation Yrotation Zrotation
							JOINT newVegas:Right_CapeB1
							{
								OFFSET 0.000000 -8.688499 0.000000
								CHANNELS 3 Xrotation Yrotation Zrotation
								End Site
								{
									OFFSET 0.000000 8.688499 0.000000
								}
							}
						}
					}
				}
				JOINT newVegas:Left_Collar
				{
					OFFSET 18.625099 8.655502 8.828100
					CHANNELS 3 Xrotation Yrotation Zrotation
					JOINT newVegas:Left_Collar1
					{
						OFFSET 14.783401 10.540405 -1.259500
						CHANNELS 3 Xrotation Yrotation Zrotation
						End Site
						{
							OFFSET 0.000000 18.199875 0.000000
						}
					}
				}
				JOINT newVegas:Collar_Back
				{
					OFFSET 0.000000 15.630707 -20.132601
					CHANNELS 3 Xrotation Yrotation Zrotation
					End Site
					{
						OFFSET 0.000000 22.523010 0.000000
					}
				}
				JOINT newVegas:Left_Peck
				{
					OFFSET 17.239599 -5.132599 25.482599
					CHANNELS 3 Xrotation Yrotation Zrotation
					End Site
					{
						OFFSET 0.000000 22.523010 0.000000
					}
				}
				JOINT newVegas:Right_Peck
				{
					OFFSET -17.239599 -5.132202 25.482599
					CHANNELS 3 Xrotation Yrotation Zrotation
					End Site
					{
						OFFSET 0.000000 22.523010 0.000000
					}
				}
				JOINT newVegas:Right_Collar
				{
					OFFSET -18.625099 8.655792 8.828100
					CHANNELS 3 Xrotation Yrotation Zrotation
					JOINT newVegas:Right_Collar1
					{
						OFFSET -14.783401 10.539993 -1.259500
						CHANNELS 3 Xrotation Yrotation Zrotation
						End Site
						{
							OFFSET 0.000000 18.199631 0.000000
						}
					}
				}
			}
		}
		JOINT newVegas:Belly
		{
			OFFSET 0.000000 -6.540398 9.014299
			CHANNELS 3 Xrotation Yrotation Zrotation
			End Site
			{
				OFFSET 0.000000 11.566666 0.000000
			}
		}
	}
	JOINT newVegas:ElvisFacialAnim_Joint
	{
		OFFSET 1.000000 -95.330101 -8.825800
		CHANNELS 3 Xrotation Yrotation Zrotation
		End Site
		{
			OFFSET 0.000000 35.315800 0.000000
		}
	}
}
MOTION
Frames: 4
Frame Time: 0.033333
1.381630 88.508247 6.447420 7.312077 9.208461 -8.044832 0.000000 0.000000 -0.000001 -65.704582 -0.535226 9.347381 54.243689 5.670587 -1.824287 5.573651 0.171398 -13.150947 -0.000000 0.000002 0.000000 -0.000000 -0.000001 0.000000 -38.191136 -2.968987 3.401527 14.031744 -9.171679 4.723695 16.915959 -4.070013 -4.860749 0.000000 0.000000 0.000000 0.000000 0.000000 -0.000001 29.344750 -0.666858 1.604430 4.268896 -0.612177 1.441927 4.253012 -0.776217 1.509879 -0.976784 -0.171828 -0.679790 -0.976777 -0.171829 -0.679787 0.000001 0.000000 0.000000 -0.976761 -0.171828 -0.679788 -0.976741 -0.171819 -0.679794 -0.000003 0.000000 -0.000000 0.000001 0.000000 -0.000000 0.758350 -12.527706 -7.549770 -91.598642 -43.953012 -86.934805 -0.000002 -26.749949 -0.000018 32.816245 -31.968014 24.563566 -7.220061 -16.942332 15.004577 23.948858 28.494689 -11.531297 0.000009 -0.000000 -0.000003 -4.466502 1.444492 -51.000333 1.444379 3.852972 -41.087293 -0.000003 0.000003 -0.000002 0.292936 5.307321 -50.447723 1.074110 3.382622 -35.224549 0.000001 -0.000001 -0.000002 0.154072 5.469961 -54.982384 2.065275 4.464467 -49.632901 0.000002 0.000001 -0.000001 -1.282592 3.827569 -43.681778 0.713472 2.803793 -28.548989 0.000001 -0.000005 0.000000 0.000000 -0.000002 -0.000002 0.000000 -0.000002 -0.000002 -0.000000 -0.000002 -0.000002 0.000001 0.000000 0.000001 0.000001 -0.000001 0.000000 0.000001 0.000000 0.000001 0.000001 -0.000000 0.000001 -0.931192 22.478103 18.619792 -10.541503 42.923699 22.909006 -0.000002 13.138353 -0.000004 13.515622 19.851603 -9.172255 -7.588275 18.769227 -14.657364 44.080992 -40.929345 34.087760 0.000000 -0.000001 0.000001 -1.831659 4.899293 16.547720 2.209131 -3.963068 58.259799 0.000000 -0.000001 0.000004 -3.801898 1.735376 35.342848 1.374286 -3.305126 45.146222 0.000000 -0.000000 -0.000001 -0.208390 -3.562263 38.075108 0.699130 -2.456182 31.773019 0.000001 0.000004 -0.000000 0.293140 -3.973865 30.700263 0.836358 -2.664771 34.843650 0.000000 -0.000000 0.000001 -0.000000 0.000001 0.000001 -0.000000 0.000000 0.000001 -0.000000 0.000001 0.000001 -0.000000 0.000000 -0.000001 0.000000 0.000000 -0.000000 -0.000000 0.000000 -0.000001 0.000000 -0.000001 -0.000000 -0.000002 0.000000 -0.000000 -0.000002 0.000000 -0.000000 -0.000002 0.000000 -0.000000 -0.000002 0.000000 -0.000000 -0.000002 0.000000 -0.000000 -0.000002 0.000000 -0.000000 -0.000002 0.000000 -0.000000 0.000002 0.000000 -0.000000 0.000000 0.000000 -0.000001 
2.166697 86.593384 0.309976 6.689689 5.692397 -6.331091 -0.000000 0.000000 -0.000000 -66.027937 -2.131598 10.508688 75.604518 6.901380 -1.858572 -1.172017 0.811394 -11.494654 -0.000000 0.000000 -0.000002 -0.000000 0.000003 -0.000000 -43.646254 -2.569802 1.152670 13.407849 -8.683426 4.614974 22.309158 -1.531743 -3.133047 0.000000 -0.000000 0.000000 -0.000001 -0.000001 0.000000 23.927008 0.380581 1.676812 5.994386 -0.187121 1.436411 5.991193 -0.355863 1.522192 -0.670613 -0.185287 -0.383222 -0.670635 -0.185288 -0.383220 -0.000003 -0.000000 -0.000000 -0.670620 -0.185291 -0.383221 -0.670575 -0.185280 -0.383224 -0.000001 -0.000000 0.000001 -0.000003 -0.000000 -0.000000 1.018369 -12.630025 -5.586693 -88.626465 -37.964357 -82.430370 -0.000005 -31.643676 0.000003 28.112726 -35.454672 28.490409 -6.407172 -15.433974 13.552717 23.948858 28.494694 -11.531296 0.000004 0.000000 -0.000003 -4.360324 0.936156 -48.667003 1.443706 3.852183 -41.077137 -0.000003 -0.000004 0.000003 0.208252 5.108873 -48.209046 1.073381 3.381589 -35.212190 0.000003 -0.000004 0.000002 0.037248 5.216188 -52.329470 2.063868 4.463290 -49.614836 -0.000003 -0.000004 -0.000002 -1.245737 3.865666 -44.192909 0.843601 3.030451 -31.105371 0.000001 -0.000002 0.000002 0.000001 -0.000001 0.000001 0.000001 -0.000001 0.000001 0.000001 -0.000002 0.000001 0.000002 0.000003 -0.000002 0.000002 0.000002 -0.000000 0.000002 0.000003 -0.000002 0.000002 0.000002 -0.000000 -1.209800 21.445310 19.047226 -15.543943 46.438753 21.157404 0.000004 14.790766 -0.000009 13.704941 20.175865 -9.533986 -7.713777 19.827291 -15.877258 42.059342 -39.413361 32.938638 0.000000 -0.000004 0.000003 -1.321873 5.123770 14.121618 2.056720 -3.864836 56.027113 -0.000000 -0.000001 -0.000003 -3.581731 2.100945 32.644025 1.373130 -3.303945 45.125865 0.000002 0.000002 -0.000001 -0.212554 -3.537057 37.729098 0.699186 -2.456232 31.774081 -0.000000 -0.000001 0.000002 0.354411 -4.124184 32.629480 0.836354 -2.664785 34.843985 -0.000001 -0.000002 -0.000000 -0.000001 0.000000 -0.000001 0.000000 0.000001 -0.000000 -0.000000 0.000002 -0.000001 -0.000000 0.000002 -0.000000 0.000000 0.000002 0.000001 -0.000000 0.000002 -0.000000 0.000000 0.000002 0.000003 0.000003 -0.000000 0.000000 0.000003 -0.000000 0.000000 0.000003 -0.000000 0.000000 0.000003 -0.000000 0.000000 0.000003 -0.000000 0.000000 0.000003 -0.000000 0.000000 0.000003 -0.000000 0.000000 0.000002 0.000001 0.000000 -0.000000 0.000000 -0.000000 
3.110953 85.584549 -6.116069 6.169634 1.934756 -5.007247 -0.000000 0.000000 -0.000000 -58.706644 -2.131211 10.584362 81.555307 4.884889 -1.827126 -0.408299 0.679104 -10.208069 0.000002 -0.000002 0.000001 -0.000001 0.000000 0.000001 -48.994340 -1.980130 -1.213428 17.865480 -8.436814 5.194352 16.086093 -0.119107 0.618962 -0.000002 -0.000000 -0.000000 0.000001 0.000000 -0.000001 15.827143 1.816136 1.996399 7.147603 0.405444 1.497673 7.151066 0.233614 1.536686 -0.349695 -0.243831 -0.059195 -0.349681 -0.243832 -0.059194 0.000002 -0.000000 0.000000 -0.349684 -0.243831 -0.059194 -0.349683 -0.243833 -0.059194 -0.000002 -0.000000 -0.000000 0.000002 -0.000000 0.000000 1.273115 -13.620517 -5.231826 -80.062631 -33.337880 -76.945380 0.000005 -38.341308 -0.000007 27.651971 -36.474265 39.086789 -4.638968 -12.051148 10.277188 23.948848 28.494682 -11.531295 0.000001 0.000001 -0.000003 -3.977293 -0.338829 -42.643794 1.441900 3.850123 -41.050304 -0.000003 0.000000 -0.000001 0.026992 4.603946 -42.615961 1.071502 3.378940 -35.180371 0.000007 0.000001 0.000000 -0.195933 4.595172 -46.009008 2.060329 4.460306 -49.569640 -0.000000 0.000003 -0.000002 -1.164195 3.947606 -45.317602 1.193820 3.545815 -37.205700 -0.000000 -0.000005 0.000001 0.000000 0.000000 -0.000000 0.000000 0.000000 -0.000000 -0.000000 -0.000000 -0.000000 0.000003 0.000003 -0.000002 0.000003 0.000002 -0.000001 0.000003 0.000003 -0.000002 0.000003 0.000002 -0.000001 -1.135520 19.051920 19.206321 -22.258082 47.788190 26.139168 0.000002 17.239172 -0.000006 14.257531 21.075865 -10.558457 -7.851031 20.997468 -17.264939 39.912637 -37.647914 31.807405 0.000001 0.000000 -0.000002 -0.736315 5.341539 11.372170 1.889018 -3.746662 53.501124 -0.000000 -0.000001 0.000000 -3.299930 2.520280 29.432419 1.371782 -3.302636 45.102802 0.000001 0.000003 -0.000001 -0.217620 -3.505254 37.292829 0.699236 -2.456348 31.775304 0.000000 -0.000003 -0.000001 0.445206 -4.323459 35.232066 0.836360 -2.664794 34.844422 0.000000 0.000003 -0.000000 -0.000003 -0.000001 -0.000000 -0.000003 0.000000 0.000002 -0.000003 -0.000001 0.000000 0.000001 -0.000001 0.000002 0.000001 0.000000 0.000001 0.000001 -0.000001 0.000002 0.000001 0.000000 0.000003 0.000002 -0.000000 -0.000000 0.000002 -0.000000 -0.000000 0.000002 -0.000000 -0.000000 0.000002 -0.000000 -0.000000 0.000002 -0.000000 -0.000000 0.000002 -0.000000 -0.000000 0.000002 -0.000000 -0.000000 0.000000 0.000000 0.000000 -0.000000 0.000000 -0.000000 
3.838998 85.193626 -13.075155 5.648280 -1.766819 -3.804981 -0.000000 -0.000000 -0.000000 -46.095673 1.470453 7.515619 75.010387 3.448481 -1.628750 -1.055312 0.316820 -3.030874 -0.000001 0.000000 -0.000001 -0.000001 0.000001 -0.000001 -52.849883 -1.570927 -2.384186 23.552425 -7.863174 5.690879 2.384826 -0.657369 4.167907 0.000001 -0.000001 0.000000 -0.000000 -0.000000 -0.000001 12.453146 2.021476 2.243855 7.598746 0.471139 1.292762 7.601970 0.314535 1.341637 -0.217967 -0.241923 0.235155 -0.217977 -0.241923 0.235155 -0.000000 0.000000 -0.000000 -0.217967 -0.241925 0.235156 -0.217877 -0.241920 0.235156 -0.000005 -0.000000 0.000000 -0.000000 0.000000 -0.000000 1.104180 -14.883933 -5.891970 -66.447113 -30.225906 -66.371366 0.000001 -44.715958 -0.000005 29.497828 -36.713028 48.640130 -2.881214 -8.587940 6.891268 23.948851 28.494690 -11.531302 0.000002 -0.000002 -0.000005 -3.210674 -1.970926 -34.385686 1.439351 3.847208 -41.012373 0.000001 0.000001 -0.000000 -0.143329 3.933520 -35.351700 1.068929 3.375303 -35.136839 0.000001 0.000001 0.000003 -0.389123 3.832145 -38.474360 2.055788 4.456419 -49.510938 -0.000003 0.000001 0.000000 -1.082228 4.026945 -46.442609 1.681014 4.107972 -44.495329 0.000001 -0.000002 0.000001 0.000002 0.000001 0.000000 0.000002 0.000001 0.000000 0.000002 0.000001 0.000000 -0.000002 0.000000 -0.000001 -0.000002 -0.000001 0.000000 -0.000002 0.000000 -0.000001 -0.000004 -0.000001 -0.000002 -0.662082 16.758568 18.719739 -34.105402 50.742015 35.867588 0.000005 20.336916 -0.000010 15.171267 22.433635 -12.166468 -7.992249 22.208910 -18.747556 37.782670 -35.722596 30.789342 0.000001 0.000000 -0.000004 -0.106572 5.530416 8.446425 1.716778 -3.613126 50.817697 0.000001 0.000002 -0.000001 -2.971120 2.954655 25.949328 1.370372 -3.301229 45.078306 0.000001 0.000001 -0.000000 -0.222943 -3.470250 36.812940 0.699286 -2.456417 31.776653 -0.000000 -0.000001 0.000000 0.556178 -4.538501 38.109754 0.836399 -2.664851 34.844934 -0.000000 0.000003 -0.000001 0.000002 0.000001 -0.000001 0.000002 -0.000001 0.000002 0.000002 0.000001 0.000001 -0.000001 0.000000 -0.000000 -0.000001 0.000001 -0.000001 -0.000001 0.000000 -0.000000 -0.000001 0.000001 0.000001 0.000000 0.000000 -0.000000 0.000000 0.000000 -0.000000 0.000000 0.000000 -0.000000 0.000000 0.000000 -0.000000 0.000000 0.000000 -0.000000 0.000000 0.000000 -0.000000 0.000000 0.000000 -0.000000 -0.000002 0.000000 0.000000 -0.000000 -0.000000 -0.000000 
